<?xml version="1.0" encoding="UTF-8"?> <!-- Generator: Adobe Illustrator 16.0.0, SVG Export Plug-In . SVG Version: 6.00 Build 0) --> <svg xmlns="http://www.w3.org/2000/svg" xmlns:xlink="http://www.w3.org/1999/xlink" id="Layer_1" x="0px" y="0px" width="365px" height="130px" viewBox="0 0 365 130" xml:space="preserve"> <g> <path fill-rule="evenodd" clip-rule="evenodd" fill="#C81F3F" d="M268.553,2.659c5.559,17.42-19.329,37.438-36.396,56.073 c6.482,0,7.339,0,11.497,0c7.307-7.404,13.687-13.112,22.385-23.73C276.548,22.174,280.933,7.2,268.553,2.659z"></path> <path fill-rule="evenodd" clip-rule="evenodd" fill="#C81F3F" d="M247.935,30.696c14.71-15.897,15.982-27.62,10.521-28.354 c-4.655-0.625-19.653,0.101-19.653,0.101c0,0.001-24.826,7.125-83.015,50.295c-20.417,15.148-44.227,37.301-73.31,61.813 c-4.803,4.959-7.584,4.894-8.563,3.59c-0.93-1.24-1.305-6.036,2.691-11.009c8.459-8.919,10.302-10.838,18.755-17.453 c7.921-6.956,96.308-84.163,126.479-87.299c-6.007-0.494-12.292-2.095-21.854,1.104c-16.405,5.487-41.236,21.479-82.036,55.248 c0,0,7.991-9.418,8.97-18.063c37.185-26.911,38.815-31.439,59.691-38.227c-22.018-0.59-27.562,2.999-61.649,27.136 c0,0-4.24-4.24-8.154-4.404c2.61,3.588,4.404,12.07-0.164,18.756c-1.391,2.036-3.995,6.686-12.231,15.493 C91.818,72.894,77.666,88.13,72.121,97.182c-4.808,7.85-12.15,19.244-5.235,27.837c2.762,3.436,12.997,5.203,21.381-2.067 c13.948-12.095,32.292-32.048,79.642-68.166c21.168-15.413,45.879-34.597,50.019-32.872c1.63,2.283-39.47,36.818-39.47,36.818 h12.803c0,0,34.006-26.136,48.847-49.051c3.162-4.883,9.195-5.626,11.091-4.893c1.773,1.957-6.829,16.557-17.411,27.236 c-9.443,9.534-20.203,18.189-28.004,26.707c6.483,0,8.317,0,12.478,0C225.565,51.328,238.612,40.77,247.935,30.696z"></path> <path fill-rule="evenodd" clip-rule="evenodd" fill="#C81F3F" d="M108.654,40.995c5.544-9.785,0.489-15.982-3.263-15.982 c-3.75,0-11.09,0-11.09,0S74.73,34.635,55.485,59.424c0,0-30.824,34.09-29.846,59.695C26.859,128.111,39.828,128,39.828,128 s-4.729-3.499-4.729-9.859s4.404-27.075,32.456-58.389c27.889-29.357,32.293-29.52,32.293-29.52s5.544-0.653,0.326,6.686 c-8.155,12.07-33.435,31.477-50.885,63.934c-9.459,17.124-2.772,26.054-1.305,27.148h9.948c0,0-8.969-9.37,3.752-30.41 S105.881,48.171,108.654,40.995z"></path> <path fill-rule="evenodd" clip-rule="evenodd" fill="#C81F3F" d="M83.17,25.013c-12.11,0.081-12.844,0-12.844,0 s-31.436,16.716-44.71,44.115h10.828C36.444,69.128,49.654,42.708,83.17,25.013z"></path> <path fill-rule="evenodd" clip-rule="evenodd" fill="#C81F3F" d="M57.362,25.013c-12.11,0.081-12.11,0.081-12.11,0.081 S17.974,38.549,3.722,69.128H14.55C14.55,69.128,26.464,41.607,57.362,25.013z"></path> </g> <polygon fill-rule="evenodd" clip-rule="evenodd" fill="#5C6771" points="162.462,69.994 261.061,65.473 359.661,69.994 "></polygon> <g> <path fill="#5C6771" d="M203.516,79.825v1.233c-1.028,0.368-2.034,1.148-3.021,2.339c-0.985,1.192-1.868,2.855-2.648,4.991 l-12.999,35.178c-0.452-0.043-1.168-0.063-2.155-0.063c-0.945,0-1.643,0.02-2.095,0.063l-15.709-38.567 c-0.535-1.355-1.15-2.339-1.848-2.957c-0.7-0.615-1.376-0.943-2.033-0.983v-1.233c2.464,0.122,5.584,0.186,9.363,0.186 c4.229,0,7.351-0.063,9.364-0.186v1.233c-1.561,0.082-2.67,0.268-3.326,0.554c-0.658,0.287-0.986,0.862-0.986,1.724 c0,0.7,0.247,1.663,0.739,2.896l10.842,27.601l7.577-20.451c1.148-3.164,1.725-5.67,1.725-7.518c0-1.644-0.442-2.835-1.324-3.574 c-0.884-0.74-2.166-1.148-3.85-1.23v-1.233c2.792,0.122,5.358,0.186,7.7,0.186C200.722,80.011,202.282,79.947,203.516,79.825z"></path> <path fill="#5C6771" d="M238.938,123.442c-2.793-0.122-7.495-0.184-14.107-0.184c-8.954,0-15.647,0.062-20.083,0.184v-1.23 c1.354-0.083,2.351-0.247,2.987-0.493c0.637-0.247,1.068-0.72,1.294-1.418s0.34-1.828,0.34-3.387V86.355 c0-1.561-0.114-2.69-0.34-3.388s-0.657-1.172-1.294-1.419c-0.637-0.246-1.633-0.408-2.987-0.49v-1.233 c4.436,0.122,11.129,0.186,20.083,0.186c6.037,0,10.329-0.063,12.876-0.186c-0.288,3.41-0.431,6.449-0.431,9.117 c0,1.81,0.061,3.205,0.185,4.191h-1.418c-0.615-4.396-1.725-7.477-3.327-9.243c-1.602-1.764-3.86-2.649-6.775-2.649h-2.526 c-1.273,0-2.197,0.104-2.771,0.308c-0.576,0.207-0.965,0.608-1.171,1.203c-0.206,0.596-0.308,1.55-0.308,2.864v15.279h1.972 c2.176,0,3.829-0.801,4.959-2.402c1.129-1.602,1.92-3.511,2.371-5.73h1.417c-0.123,1.727-0.186,3.656-0.186,5.791v2.957 c0,2.095,0.123,5.012,0.37,8.747h-1.416c-0.863-5.42-3.368-8.13-7.516-8.13h-1.972v15.523c0,1.314,0.102,2.271,0.308,2.864 c0.206,0.597,0.595,0.996,1.171,1.203c0.574,0.205,1.498,0.308,2.771,0.308h3.019c2.916,0,5.269-0.996,7.054-2.988 c1.787-1.991,3.05-5.37,3.79-10.135h1.416c-0.122,1.354-0.185,3.08-0.185,5.175C238.507,117.857,238.649,120.979,238.938,123.442z"></path> <path fill="#5C6771" d="M284.154,81.059c-1.355,0.204-2.352,0.554-2.987,1.047c-0.638,0.491-1.069,1.273-1.294,2.339 c-0.227,1.069-0.339,2.649-0.339,4.745v34.377l-1.479-0.063l-1.663,0.063l-26.736-33.884v23.656c0,2.424,0.123,4.199,0.369,5.329 c0.247,1.13,0.78,1.952,1.602,2.465s2.156,0.872,4.004,1.079v1.23c-1.602-0.122-3.819-0.184-6.652-0.184 c-2.259,0-4.046,0.062-5.36,0.184v-1.23c1.356-0.207,2.352-0.557,2.989-1.048c0.636-0.493,1.066-1.273,1.293-2.341 c0.225-1.069,0.338-2.649,0.338-4.745V86.355c0-1.561-0.113-2.69-0.338-3.388c-0.227-0.697-0.657-1.172-1.293-1.419 c-0.638-0.246-1.633-0.408-2.989-0.49v-1.233c1.314,0.122,3.102,0.186,5.36,0.186c2.053,0,3.819-0.063,5.298-0.186l23.841,29.386 V89.929c0-2.424-0.123-4.199-0.37-5.329c-0.246-1.13-0.78-1.949-1.602-2.463c-0.822-0.515-2.155-0.874-4.004-1.078v-1.233 c1.602,0.122,3.819,0.186,6.653,0.186c2.3,0,4.086-0.063,5.359-0.186V81.059z"></path> <path fill="#5C6771" d="M327.03,81.059c-1.354,0.204-2.351,0.554-2.987,1.047c-0.637,0.491-1.067,1.273-1.294,2.339 c-0.226,1.069-0.338,2.649-0.338,4.745v16.325c0,5.875-0.843,10.228-2.526,13.062c-1.108,1.808-2.71,3.215-4.805,4.22 c-2.096,1.006-4.662,1.511-7.701,1.511c-4.765,0-8.461-1.027-11.089-3.081c-1.89-1.521-3.163-3.441-3.819-5.761 c-0.658-2.32-0.985-5.575-0.985-9.765V86.355c0-1.561-0.113-2.69-0.34-3.388c-0.225-0.697-0.656-1.172-1.293-1.419 c-0.637-0.246-1.632-0.408-2.987-0.49v-1.233c2.095,0.122,5.298,0.186,9.61,0.186c4.271,0,7.535-0.063,9.795-0.186v1.233 c-1.479,0.082-2.557,0.244-3.234,0.49c-0.678,0.247-1.141,0.722-1.386,1.419c-0.247,0.697-0.37,1.827-0.37,3.388v23.226 c0,4.313,0.626,7.485,1.879,9.519c1.252,2.033,3.46,3.049,6.622,3.049c4.106,0,7.002-1.386,8.688-4.157 c1.682-2.773,2.525-6.704,2.525-11.798V89.929c0-2.382-0.145-4.147-0.431-5.299c-0.289-1.148-0.844-1.979-1.664-2.493 c-0.822-0.515-2.116-0.874-3.881-1.078v-1.233c1.56,0.122,3.777,0.186,6.653,0.186c2.3,0,4.086-0.063,5.358-0.186V81.059z"></path> <path fill="#5C6771" d="M350.502,79.64c1.272,0.412,2.565,1.008,3.881,1.787c0.452,0.247,0.852,0.453,1.201,0.615 c0.349,0.165,0.646,0.247,0.894,0.247c0.369,0,0.656-0.216,0.862-0.646c0.205-0.432,0.369-1.118,0.492-2.064h1.417 c-0.205,2.753-0.308,7.435-0.308,14.048h-1.417c-0.164-2.219-0.668-4.335-1.509-6.348c-0.843-2.013-2.033-3.645-3.572-4.896 c-1.542-1.254-3.338-1.881-5.392-1.881c-2.013,0-3.646,0.565-4.897,1.695c-1.254,1.129-1.878,2.659-1.878,4.589 c0,1.439,0.308,2.691,0.924,3.76c0.615,1.068,1.479,2.043,2.587,2.926c1.109,0.884,2.812,2.085,5.113,3.605l1.972,1.354 c2.422,1.602,4.332,2.998,5.729,4.189c1.396,1.19,2.535,2.576,3.419,4.157c0.883,1.582,1.324,3.419,1.324,5.514 c0,2.63-0.678,4.835-2.032,6.622c-1.356,1.787-3.194,3.133-5.514,4.035c-2.321,0.903-4.897,1.357-7.731,1.357 c-2.301,0-4.21-0.207-5.729-0.618c-1.52-0.409-2.916-0.964-4.19-1.662c-0.902-0.576-1.602-0.862-2.093-0.862 c-0.37,0-0.657,0.214-0.863,0.646s-0.37,1.12-0.493,2.064h-1.416c0.164-2.588,0.245-8.132,0.245-16.634h1.417 c0.288,4.601,1.314,8.327,3.08,11.181c1.767,2.855,4.477,4.282,8.133,4.282c2.219,0,4.045-0.596,5.482-1.785 c1.438-1.191,2.157-2.896,2.157-5.114c0-2.3-0.74-4.271-2.218-5.914c-1.479-1.642-3.82-3.49-7.023-5.545 c-2.464-1.602-4.437-2.996-5.915-4.189c-1.478-1.19-2.689-2.597-3.634-4.22c-0.944-1.62-1.417-3.5-1.417-5.638 c0-2.464,0.626-4.548,1.879-6.252c1.253-1.705,2.926-2.967,5.021-3.788c2.096-0.822,4.394-1.233,6.9-1.233 C347.522,79.024,349.229,79.231,350.502,79.64z"></path> </g> </svg> 